<svg xmlns="http://www.w3.org/2000/svg" width="20" height="20" viewBox="0 0 26.486 23.044">
  <path id="briefcase" d="M23.849,37.021H18.142v-2.3a1.988,1.988,0,0,0-1.986-1.986H10.329a1.988,1.988,0,0,0-1.986,1.986v2.3H2.637A2.64,2.64,0,0,0,0,39.658V53.144A2.64,2.64,0,0,0,2.637,55.78H23.849a2.64,2.64,0,0,0,2.637-2.637V39.658A2.64,2.64,0,0,0,23.849,37.021Zm-13.823-2.3a.3.3,0,0,1,.3-.3h5.827a.3.3,0,0,1,.3.3v2.3H10.026ZM1.682,39.658a.956.956,0,0,1,.955-.955H23.849a.956.956,0,0,1,.955.955V40.9a2.656,2.656,0,0,1-1.9,2.537L14.1,46a3.074,3.074,0,0,1-1.722,0l-8.8-2.561a2.656,2.656,0,0,1-1.9-2.537ZM23.849,54.1H2.637a.956.956,0,0,1-.955-.955V44.327a4.305,4.305,0,0,0,1.434.728c9.717,2.829,9.217,2.751,10.127,2.751s.4.081,10.127-2.751a4.3,4.3,0,0,0,1.434-.728v8.816a.956.956,0,0,1-.955.955Z" transform="translate(0 -32.736)" fill="#c7c7d1"/>
</svg>
