<svg id="calendar_1_" data-name="calendar (1)" xmlns="http://www.w3.org/2000/svg" width="27.624" height="27.624" viewBox="0 0 27.624 27.624">
  <g id="Group_105" data-name="Group 105">
    <g id="Group_104" data-name="Group 104">
      <path id="Path_223" data-name="Path 223" d="M24.387,2.158H23.092V0H20.934V2.158H6.69V0H4.532V2.158H3.237A3.241,3.241,0,0,0,0,5.4V24.387a3.241,3.241,0,0,0,3.237,3.237h21.15a3.241,3.241,0,0,0,3.237-3.237V5.4A3.241,3.241,0,0,0,24.387,2.158Zm1.079,22.229a1.08,1.08,0,0,1-1.079,1.079H3.237a1.08,1.08,0,0,1-1.079-1.079V10.143H25.466Zm0-16.4H2.158V5.4A1.08,1.08,0,0,1,3.237,4.316H4.532V6.474H6.69V4.316H20.934V6.474h2.158V4.316h1.295A1.08,1.08,0,0,1,25.466,5.4Z" fill="#c7c7d1"/>
    </g>
  </g>
  <g id="Group_107" data-name="Group 107" transform="translate(4.038 12.613)">
    <g id="Group_106" data-name="Group 106" transform="translate(0 0)">
      <rect id="Rectangle_292" data-name="Rectangle 292" width="2.438" height="1.829" transform="translate(0 0)" fill="#c7c7d1"/>
    </g>
  </g>
  <g id="Group_109" data-name="Group 109" transform="translate(8.305 12.613)">
    <g id="Group_108" data-name="Group 108" transform="translate(0 0)">
      <rect id="Rectangle_293" data-name="Rectangle 293" width="2.438" height="1.829" transform="translate(0 0)" fill="#c7c7d1"/>
    </g>
  </g>
  <g id="Group_111" data-name="Group 111" transform="translate(12.572 12.613)">
    <g id="Group_110" data-name="Group 110" transform="translate(0 0)">
      <rect id="Rectangle_294" data-name="Rectangle 294" width="2.438" height="1.829" transform="translate(0 0)" fill="#c7c7d1"/>
    </g>
  </g>
  <g id="Group_113" data-name="Group 113" transform="translate(16.84 12.613)">
    <g id="Group_112" data-name="Group 112" transform="translate(0 0)">
      <rect id="Rectangle_295" data-name="Rectangle 295" width="2.438" height="1.829" transform="translate(0 0)" fill="#c7c7d1"/>
    </g>
  </g>
  <g id="Group_115" data-name="Group 115" transform="translate(21.107 12.613)">
    <g id="Group_114" data-name="Group 114" transform="translate(0 0)">
      <rect id="Rectangle_296" data-name="Rectangle 296" width="2.438" height="1.829" transform="translate(0 0)" fill="#c7c7d1"/>
    </g>
  </g>
  <g id="Group_117" data-name="Group 117" transform="translate(4.038 16.88)">
    <g id="Group_116" data-name="Group 116" transform="translate(0 0)">
      <rect id="Rectangle_297" data-name="Rectangle 297" width="2.438" height="1.829" fill="#c7c7d1"/>
    </g>
  </g>
  <g id="Group_119" data-name="Group 119" transform="translate(8.305 16.88)">
    <g id="Group_118" data-name="Group 118" transform="translate(0 0)">
      <rect id="Rectangle_298" data-name="Rectangle 298" width="2.438" height="1.829" fill="#c7c7d1"/>
    </g>
  </g>
  <g id="Group_121" data-name="Group 121" transform="translate(12.572 16.88)">
    <g id="Group_120" data-name="Group 120" transform="translate(0 0)">
      <rect id="Rectangle_299" data-name="Rectangle 299" width="2.438" height="1.829" fill="#c7c7d1"/>
    </g>
  </g>
  <g id="Group_123" data-name="Group 123" transform="translate(16.84 16.88)">
    <g id="Group_122" data-name="Group 122" transform="translate(0 0)">
      <rect id="Rectangle_300" data-name="Rectangle 300" width="2.438" height="1.829" transform="translate(0)" fill="#c7c7d1"/>
    </g>
  </g>
  <g id="Group_125" data-name="Group 125" transform="translate(4.038 21.148)">
    <g id="Group_124" data-name="Group 124" transform="translate(0 0)">
      <rect id="Rectangle_301" data-name="Rectangle 301" width="2.438" height="1.829" fill="#c7c7d1"/>
    </g>
  </g>
  <g id="Group_127" data-name="Group 127" transform="translate(8.305 21.148)">
    <g id="Group_126" data-name="Group 126" transform="translate(0 0)">
      <rect id="Rectangle_302" data-name="Rectangle 302" width="2.438" height="1.829" fill="#c7c7d1"/>
    </g>
  </g>
  <g id="Group_129" data-name="Group 129" transform="translate(12.572 21.148)">
    <g id="Group_128" data-name="Group 128" transform="translate(0 0)">
      <rect id="Rectangle_303" data-name="Rectangle 303" width="2.438" height="1.829" fill="#c7c7d1"/>
    </g>
  </g>
  <g id="Group_131" data-name="Group 131" transform="translate(16.84 21.148)">
    <g id="Group_130" data-name="Group 130" transform="translate(0 0)">
      <rect id="Rectangle_304" data-name="Rectangle 304" width="2.438" height="1.829" transform="translate(0)" fill="#c7c7d1"/>
    </g>
  </g>
  <g id="Group_133" data-name="Group 133" transform="translate(21.107 16.88)">
    <g id="Group_132" data-name="Group 132" transform="translate(0 0)">
      <rect id="Rectangle_305" data-name="Rectangle 305" width="2.438" height="1.829" fill="#c7c7d1"/>
    </g>
  </g>
</svg>
