<svg xmlns="http://www.w3.org/2000/svg" width="32.571" height="32.571" viewBox="0 0 32.571 32.571">
  <g id="paste" transform="translate(0)">
    <g id="Group_389" data-name="Group 389" transform="translate(0)">
      <g id="Group_388" data-name="Group 388">
        <path id="Path_482" data-name="Path 482" d="M23.451,0H1.3A1.3,1.3,0,0,0,0,1.3V23.451a1.3,1.3,0,0,0,1.3,1.3H23.451a1.3,1.3,0,0,0,1.3-1.3V1.3A1.3,1.3,0,0,0,23.451,0Zm-1.3,22.148H2.606V2.606H22.148Z" fill="#5c6165"/>
      </g>
    </g>
    <g id="Group_391" data-name="Group 391" transform="translate(26.708 26.708)">
      <g id="Group_390" data-name="Group 390">
        <path id="Path_483" data-name="Path 483" d="M423.1,419.84V423.1H419.84V425.7h4.56a1.3,1.3,0,0,0,1.3-1.3v-4.56Z" transform="translate(-419.84 -419.84)" fill="#5c6165"/>
      </g>
    </g>
    <g id="Group_393" data-name="Group 393" transform="translate(16.689 29.965)">
      <g id="Group_392" data-name="Group 392">
        <rect id="Rectangle_850" data-name="Rectangle 850" width="7.009" height="2.606" fill="#5c6165"/>
      </g>
    </g>
    <g id="Group_395" data-name="Group 395" transform="translate(7.817 26.708)">
      <g id="Group_394" data-name="Group 394">
        <path id="Path_484" data-name="Path 484" d="M125.486,423.1V419.84H122.88v4.56a1.3,1.3,0,0,0,1.3,1.3h4.56V423.1Z" transform="translate(-122.88 -419.84)" fill="#5c6165"/>
      </g>
    </g>
    <g id="Group_397" data-name="Group 397" transform="translate(26.708 7.817)">
      <g id="Group_396" data-name="Group 396">
        <path id="Path_485" data-name="Path 485" d="M424.4,122.88h-4.56v2.606H423.1v3.257H425.7v-4.56A1.3,1.3,0,0,0,424.4,122.88Z" transform="translate(-419.84 -122.88)" fill="#5c6165"/>
      </g>
    </g>
    <g id="Group_399" data-name="Group 399" transform="translate(29.965 16.689)">
      <g id="Group_398" data-name="Group 398">
        <rect id="Rectangle_851" data-name="Rectangle 851" width="2.606" height="7.009" fill="#5c6165"/>
      </g>
    </g>
  </g>
</svg>
