<svg xmlns="http://www.w3.org/2000/svg" width="24.048" height="20.04" viewBox="0 0 24.048 20.04">
  <g id="bullet-list_1_" data-name="bullet-list (1)" transform="translate(0 -42.666)">
    <g id="Group_328" data-name="Group 328" transform="translate(6.012 42.666)">
      <g id="Group_327" data-name="Group 327" transform="translate(0 0)">
        <path id="Path_446" data-name="Path 446" d="M145.535,42.667H128.5a.5.5,0,1,0,0,1h17.034a.5.5,0,0,0,0-1Z" transform="translate(-128 -42.667)" fill="#9f9f9f"/>
      </g>
    </g>
    <g id="Group_330" data-name="Group 330" transform="translate(6.012 45.672)">
      <g id="Group_329" data-name="Group 329" transform="translate(0 0)">
        <path id="Path_447" data-name="Path 447" d="M138.521,106.667H128.5a.5.5,0,1,0,0,1h10.02a.5.5,0,1,0,0-1Z" transform="translate(-128 -106.667)" fill="#9f9f9f"/>
      </g>
    </g>
    <g id="Group_332" data-name="Group 332" transform="translate(6.012 50.682)">
      <g id="Group_331" data-name="Group 331" transform="translate(0 0)">
        <path id="Path_448" data-name="Path 448" d="M145.535,213.333H128.5a.5.5,0,1,0,0,1h17.034a.5.5,0,1,0,0-1Z" transform="translate(-128 -213.333)" fill="#9f9f9f"/>
      </g>
    </g>
    <g id="Group_334" data-name="Group 334" transform="translate(6.012 53.688)">
      <g id="Group_333" data-name="Group 333" transform="translate(0 0)">
        <path id="Path_449" data-name="Path 449" d="M138.521,277.333H128.5a.5.5,0,1,0,0,1h10.02a.5.5,0,0,0,0-1Z" transform="translate(-128 -277.333)" fill="#9f9f9f"/>
      </g>
    </g>
    <g id="Group_336" data-name="Group 336" transform="translate(6.012 58.698)">
      <g id="Group_335" data-name="Group 335" transform="translate(0 0)">
        <path id="Path_450" data-name="Path 450" d="M145.535,384H128.5a.5.5,0,1,0,0,1h17.034a.5.5,0,1,0,0-1Z" transform="translate(-128 -384)" fill="#9f9f9f"/>
      </g>
    </g>
    <g id="Group_338" data-name="Group 338" transform="translate(6.012 61.704)">
      <g id="Group_337" data-name="Group 337" transform="translate(0 0)">
        <path id="Path_451" data-name="Path 451" d="M138.521,448H128.5a.5.5,0,1,0,0,1h10.02a.5.5,0,0,0,0-1Z" transform="translate(-128 -448)" fill="#9f9f9f"/>
      </g>
    </g>
    <g id="Group_340" data-name="Group 340" transform="translate(0 42.666)">
      <g id="Group_339" data-name="Group 339" transform="translate(0 0)">
        <circle id="Ellipse_54" data-name="Ellipse 54" cx="2.004" cy="2.004" r="2.004" fill="#9f9f9f"/>
      </g>
    </g>
    <g id="Group_342" data-name="Group 342" transform="translate(0 50.682)">
      <g id="Group_341" data-name="Group 341" transform="translate(0 0)">
        <circle id="Ellipse_55" data-name="Ellipse 55" cx="2.004" cy="2.004" r="2.004" fill="#9f9f9f"/>
      </g>
    </g>
    <g id="Group_344" data-name="Group 344" transform="translate(0 58.698)">
      <g id="Group_343" data-name="Group 343" transform="translate(0 0)">
        <circle id="Ellipse_56" data-name="Ellipse 56" cx="2.004" cy="2.004" r="2.004" fill="#9f9f9f"/>
      </g>
    </g>
  </g>
</svg>
