<svg xmlns="http://www.w3.org/2000/svg" width="24.351" height="23.17" viewBox="0 0 24.351 23.17">
  <path id="edit" d="M11.519.75a5.707,5.707,0,1,0,5.707,5.707A5.707,5.707,0,0,0,11.519.75Zm10.43,19.058-3.642,3.642q-.066.066-.134.128h1.875a1.9,1.9,0,0,0,1.9-1.9Zm-10.9,3.771A1.9,1.9,0,0,1,11,22.85l.382-2.828a4.077,4.077,0,0,1,1.157-2.337L16,14.224a20.549,20.549,0,0,0-14.3,1.87A1.8,1.8,0,0,0,.75,17.685v3.992a1.9,1.9,0,0,0,1.9,1.9h8.392Zm2.265-5.125a2.989,2.989,0,0,0-.849,1.714L12.079,23a.815.815,0,0,0,.917.917l2.828-.382a2.99,2.99,0,0,0,1.714-.849l6.688-6.688A2.99,2.99,0,0,0,20,11.767Zm.767,1.932a1.359,1.359,0,0,1,.386-.779L21.15,12.92a1.359,1.359,0,0,1,1.922,1.922l-6.688,6.688a1.358,1.358,0,0,1-.779.386l-1.767.239Z" transform="translate(-0.75 -0.75)" fill="#9f9f9f" fill-rule="evenodd"/>
</svg>
