<svg xmlns="http://www.w3.org/2000/svg" width="21.176" height="28.234" viewBox="0 0 21.176 28.234">
  <path id="padlock" d="M21.529,10.588h-.882V7.059a7.059,7.059,0,0,0-14.117,0v3.529H5.647A2.65,2.65,0,0,0,3,13.235V25.587a2.65,2.65,0,0,0,2.647,2.647H21.529a2.65,2.65,0,0,0,2.647-2.647V13.235A2.65,2.65,0,0,0,21.529,10.588ZM8.882,7.059a4.706,4.706,0,1,1,9.411,0v3.529H8.882Zm5.882,12.614v2.68a1.176,1.176,0,0,1-2.353,0v-2.68a2.353,2.353,0,1,1,2.353,0Z" transform="translate(-3)" fill="#9f9f9f"/>
</svg>
