<svg id="paper" xmlns="http://www.w3.org/2000/svg" width="27.063" height="27.063" viewBox="0 0 27.063 27.063">
  <path id="Path_444" data-name="Path 444" d="M16.069,0H3.1A3.1,3.1,0,0,0,0,3.1V20.579a3.1,3.1,0,0,0,3.1,3.1h8.322l.248-1.387a3.14,3.14,0,0,1,.857-1.658l6.642-6.63V3.1a3.1,3.1,0,0,0-3.1-3.1ZM4.511,4.511H9.021a1.128,1.128,0,0,1,0,2.255H4.511a1.128,1.128,0,0,1,0-2.255Zm5.638,11.276H4.511a1.128,1.128,0,0,1,0-2.255h5.638a1.128,1.128,0,1,1,0,2.255Zm4.511-4.511H4.511a1.128,1.128,0,0,1,0-2.255H14.659a1.128,1.128,0,1,1,0,2.255Z" fill="#9f9f9f"/>
  <path id="Path_445" data-name="Path 445" d="M12.624,25.573a.846.846,0,0,1-.832-.993l.6-3.389a.849.849,0,0,1,.235-.451L21,12.369a1.721,1.721,0,0,1,2.591-.2l1.395,1.395a1.974,1.974,0,0,1,0,2.791L16.61,24.727a.833.833,0,0,1-.451.235l-3.389.6a.806.806,0,0,1-.147.014Zm3.389-1.443h.011Z" transform="translate(1.503 1.49)" fill="#9f9f9f"/>
</svg>
