<svg id="profile" xmlns="http://www.w3.org/2000/svg" width="29.058" height="29.31" viewBox="0 0 29.058 29.31">
  <circle id="Ellipse_53" data-name="Ellipse 53" cx="6.372" cy="6.372" r="6.372" transform="translate(5.097)" fill="#9f9f9f"/>
  <path id="Path_442" data-name="Path 442" d="M14.7,23.214a3.194,3.194,0,0,1,.259-3.568,3.194,3.194,0,0,1-.259-3.568l1.031-1.784A3.2,3.2,0,0,1,18.49,12.7a3.245,3.245,0,0,1,.46.033,3.308,3.308,0,0,1,.148-.3A6.011,6.011,0,0,0,16.885,12H6.053A6.06,6.06,0,0,0,0,18.053v4.46a.956.956,0,0,0,.956.956H14.845Z" transform="translate(0 3.292)" fill="#9f9f9f"/>
  <path id="Path_443" data-name="Path 443" d="M24.036,19.969a4.631,4.631,0,0,0,.06-.6,4.843,4.843,0,0,0-.06-.6l1.148-.869a.638.638,0,0,0,.167-.827L24.32,15.294a.637.637,0,0,0-.8-.269l-1.322.557a4.735,4.735,0,0,0-1.044-.621l-.176-1.4A.638.638,0,0,0,20.348,13H18.287a.637.637,0,0,0-.632.558l-.176,1.4a4.755,4.755,0,0,0-1.044.621l-1.321-.557a.636.636,0,0,0-.8.269l-1.031,1.784a.638.638,0,0,0,.167.827l1.148.869a4.631,4.631,0,0,0-.06.6,4.844,4.844,0,0,0,.06.6l-1.148.869a.638.638,0,0,0-.167.827l1.031,1.785a.637.637,0,0,0,.8.269l1.321-.558a4.735,4.735,0,0,0,1.044.621l.176,1.4a.636.636,0,0,0,.631.558h2.061a.637.637,0,0,0,.632-.558l.176-1.4a4.755,4.755,0,0,0,1.044-.621l1.321.557a.636.636,0,0,0,.8-.269l1.031-1.785a.638.638,0,0,0-.167-.827ZM19.317,21.92a2.549,2.549,0,1,1,2.549-2.549A2.548,2.548,0,0,1,19.317,21.92Z" transform="translate(3.621 3.567)" fill="#9f9f9f"/>
</svg>
